<svg width="30" height="30" viewBox="0 0 30 30" fill="none" xmlns="http://www.w3.org/2000/svg">
<path d="M15.0325 2.5C12.0714 2.49962 9.20673 3.5531 6.95136 5.47187C4.69599 7.39065 3.19711 10.0495 2.72301 12.9724C2.24891 15.8954 2.83054 18.8916 4.36378 21.4249C5.89703 23.9582 8.28181 25.8631 11.0913 26.7987C11.7163 26.9112 11.94 26.5275 11.94 26.1975C11.94 25.9013 11.93 25.1162 11.9263 24.0725C8.45751 24.8225 7.72501 22.4 7.72501 22.4C7.49666 21.6462 7.00574 20.9992 6.34126 20.5763C5.21626 19.8025 6.42751 19.82 6.42751 19.82C7.22751 19.93 7.93376 20.4038 8.33626 21.105C8.50518 21.4121 8.73323 21.6828 9.00726 21.9013C9.2813 22.1198 9.59589 22.2819 9.9329 22.3783C10.2699 22.4746 10.6226 22.5033 10.9708 22.4626C11.3189 22.4219 11.6556 22.3127 11.9613 22.1412C12.0188 21.5087 12.3013 20.9175 12.755 20.4737C9.98751 20.16 7.07751 19.09 7.07751 14.3113C7.06215 13.0752 7.52114 11.8804 8.36001 10.9725C7.98045 9.89664 8.02515 8.71657 8.48501 7.6725C8.48501 7.6725 9.53126 7.33625 11.9125 8.94875C13.9548 8.38876 16.1102 8.38876 18.1525 8.94875C20.535 7.335 21.58 7.6725 21.58 7.6725C22.0425 8.71625 22.0863 9.8975 21.705 10.9725C22.547 11.8803 23.0056 13.0783 22.985 14.3162C22.985 19.1075 20.0725 20.16 17.295 20.4688C17.895 21.0812 18.2013 21.9213 18.1388 22.7763C18.1388 24.4438 18.1238 25.7887 18.1238 26.1975C18.1238 26.5312 18.3463 26.9188 18.9825 26.7962C21.7908 25.859 24.174 23.9531 25.7057 21.4196C27.2374 18.886 27.8176 15.8901 27.3425 12.9679C26.8674 10.0457 25.3681 7.38786 23.1127 5.46999C20.8573 3.55211 17.9931 2.49932 15.0325 2.5Z" fill="#CCCCCC"/>
</svg>
