<svg width="174" height="42" viewBox="0 0 174 42" fill="none" xmlns="http://www.w3.org/2000/svg">
<path d="M50 14.2857L25 0L0 14.2857H6.25L25 4.76191L43.75 14.2857H50Z" fill="white"/>
<path d="M7.14288 16.0714H42.8572V41.0714H7.14288V16.0714ZM39.2857 37.5V19.6429H10.7143V37.5H39.2857ZM17.8572 23.2143H21.4286V26.7857H25V30.3572H21.4286V33.9286H17.8572V30.3572H14.2857V26.7857H17.8572V23.2143ZM28.5715 23.2143H32.1429V26.7857H28.5715V23.2143ZM35.7143 30.3572H32.1429V33.9286H35.7143V30.3572Z" fill="white"/>
<path d="M61.873 28.0215H66.6719V34.4727C65.998 34.6953 65.3008 34.8682 64.5801 34.9912C63.8594 35.1143 63.0508 35.1758 62.1543 35.1758C60.8477 35.1758 59.7402 34.918 58.832 34.4023C57.9297 33.8809 57.2441 33.1279 56.7754 32.1436C56.3066 31.1533 56.0723 29.9609 56.0723 28.5664C56.0723 27.2246 56.333 26.0615 56.8545 25.0771C57.376 24.0869 58.1348 23.3223 59.1309 22.7832C60.127 22.2383 61.334 21.9658 62.752 21.9658C63.4492 21.9658 64.123 22.0361 64.7734 22.1768C65.4297 22.3115 66.0303 22.499 66.5752 22.7393L65.8369 24.4795C65.4033 24.2744 64.917 24.1016 64.3779 23.9609C63.8389 23.8203 63.2793 23.75 62.6992 23.75C61.7793 23.75 60.9854 23.9492 60.3174 24.3477C59.6553 24.7461 59.1455 25.3086 58.7881 26.0352C58.4307 26.7559 58.252 27.6084 58.252 28.5928C58.252 29.5479 58.3955 30.3857 58.6826 31.1064C58.9697 31.8271 59.418 32.3896 60.0273 32.7939C60.6426 33.1924 61.4365 33.3916 62.4092 33.3916C62.8955 33.3916 63.3086 33.3652 63.6484 33.3125C63.9883 33.2598 64.3018 33.2012 64.5889 33.1367V29.8232H61.873V28.0215ZM73.3516 25.0859C74.582 25.0859 75.5107 25.3584 76.1377 25.9033C76.7705 26.4482 77.0869 27.2979 77.0869 28.4521V35H75.6191L75.2236 33.6201H75.1533C74.8779 33.9717 74.5938 34.2617 74.3008 34.4902C74.0078 34.7188 73.668 34.8887 73.2812 35C72.9004 35.1172 72.4346 35.1758 71.8838 35.1758C71.3037 35.1758 70.7852 35.0703 70.3281 34.8594C69.8711 34.6426 69.5107 34.3145 69.2471 33.875C68.9834 33.4355 68.8516 32.8789 68.8516 32.2051C68.8516 31.2031 69.2236 30.4502 69.9678 29.9463C70.7178 29.4424 71.8486 29.1641 73.3604 29.1113L75.0479 29.0498V28.54C75.0479 27.8662 74.8896 27.3857 74.5732 27.0986C74.2627 26.8115 73.8232 26.668 73.2549 26.668C72.7686 26.668 72.2969 26.7383 71.8398 26.8789C71.3828 27.0195 70.9375 27.1924 70.5039 27.3975L69.8359 25.9385C70.3105 25.6865 70.8496 25.4814 71.4531 25.3232C72.0625 25.165 72.6953 25.0859 73.3516 25.0859ZM75.0391 30.3506L73.7822 30.3945C72.751 30.4297 72.0273 30.6055 71.6113 30.9219C71.1953 31.2383 70.9873 31.6719 70.9873 32.2227C70.9873 32.7031 71.1309 33.0547 71.418 33.2773C71.7051 33.4941 72.083 33.6025 72.5518 33.6025C73.2666 33.6025 73.8584 33.4004 74.3271 32.9961C74.8018 32.5859 75.0391 31.9854 75.0391 31.1943V30.3506ZM90.9736 25.0859C92.0635 25.0859 92.8838 25.3672 93.4346 25.9297C93.9912 26.4922 94.2695 27.3945 94.2695 28.6367V35H92.2041V29.0059C92.2041 28.2676 92.0605 27.7109 91.7734 27.3359C91.4863 26.9609 91.0498 26.7734 90.4639 26.7734C89.6436 26.7734 89.0518 27.0371 88.6885 27.5645C88.3311 28.0859 88.1523 28.8447 88.1523 29.8408V35H86.0869V29.0059C86.0869 28.5137 86.0225 28.1035 85.8936 27.7754C85.7705 27.4414 85.5801 27.1924 85.3223 27.0283C85.0645 26.8584 84.7393 26.7734 84.3467 26.7734C83.7783 26.7734 83.3242 26.9023 82.9844 27.1602C82.6504 27.418 82.4102 27.7988 82.2637 28.3027C82.1172 28.8008 82.0439 29.4131 82.0439 30.1396V35H79.9785V25.2705H81.5869L81.877 26.5801H81.9912C82.1904 26.2402 82.4365 25.9619 82.7295 25.7451C83.0283 25.5225 83.3594 25.3584 83.7227 25.2529C84.0859 25.1416 84.4639 25.0859 84.8564 25.0859C85.583 25.0859 86.1953 25.2148 86.6934 25.4727C87.1914 25.7246 87.5635 26.1113 87.8096 26.6328H87.9678C88.2725 26.1055 88.6973 25.7158 89.2422 25.4639C89.7871 25.2119 90.3643 25.0859 90.9736 25.0859ZM101.028 25.0859C101.896 25.0859 102.64 25.2646 103.261 25.6221C103.882 25.9795 104.359 26.4863 104.693 27.1426C105.027 27.7988 105.194 28.584 105.194 29.498V30.6055H98.6992C98.7227 31.5488 98.9746 32.2754 99.4551 32.7852C99.9414 33.2949 100.621 33.5498 101.494 33.5498C102.115 33.5498 102.672 33.4912 103.164 33.374C103.662 33.251 104.175 33.0723 104.702 32.8379V34.5166C104.216 34.7451 103.721 34.9121 103.217 35.0176C102.713 35.123 102.109 35.1758 101.406 35.1758C100.451 35.1758 99.6104 34.9912 98.8838 34.6221C98.1631 34.2471 97.5977 33.6904 97.1875 32.9521C96.7832 32.2139 96.5811 31.2969 96.5811 30.2012C96.5811 29.1113 96.7656 28.1855 97.1348 27.4238C97.5039 26.6621 98.0225 26.082 98.6904 25.6836C99.3584 25.2852 100.138 25.0859 101.028 25.0859ZM101.028 26.6416C100.378 26.6416 99.8506 26.8525 99.4463 27.2744C99.0479 27.6963 98.8135 28.3145 98.7432 29.1289H103.173C103.167 28.6426 103.085 28.2119 102.927 27.8369C102.774 27.4619 102.54 27.1689 102.224 26.958C101.913 26.7471 101.515 26.6416 101.028 26.6416ZM112.454 25.0859C112.618 25.0859 112.797 25.0947 112.99 25.1123C113.184 25.1299 113.351 25.1533 113.491 25.1826L113.298 27.1162C113.175 27.0811 113.022 27.0547 112.841 27.0371C112.665 27.0195 112.507 27.0107 112.366 27.0107C111.997 27.0107 111.646 27.0723 111.312 27.1953C110.978 27.3125 110.682 27.4941 110.424 27.7402C110.166 27.9805 109.964 28.2822 109.817 28.6455C109.671 29.0088 109.598 29.4307 109.598 29.9111V35H107.523V25.2705H109.141L109.422 26.9844H109.519C109.712 26.6387 109.952 26.3223 110.239 26.0352C110.526 25.748 110.854 25.5195 111.224 25.3496C111.599 25.1738 112.009 25.0859 112.454 25.0859ZM130.313 35H128.213V29.1992H122.289V35H120.18V22.1504H122.289V27.4062H128.213V22.1504H130.313V35ZM142.117 30.1133C142.117 30.9219 142.012 31.6396 141.801 32.2666C141.59 32.8936 141.282 33.4238 140.878 33.8574C140.474 34.2852 139.987 34.6133 139.419 34.8418C138.851 35.0645 138.209 35.1758 137.494 35.1758C136.826 35.1758 136.214 35.0645 135.657 34.8418C135.101 34.6133 134.617 34.2852 134.207 33.8574C133.803 33.4238 133.489 32.8936 133.267 32.2666C133.044 31.6396 132.933 30.9219 132.933 30.1133C132.933 29.041 133.117 28.1328 133.486 27.3887C133.861 26.6387 134.395 26.0674 135.086 25.6748C135.777 25.2822 136.601 25.0859 137.556 25.0859C138.452 25.0859 139.243 25.2822 139.929 25.6748C140.614 26.0674 141.15 26.6387 141.537 27.3887C141.924 28.1387 142.117 29.0469 142.117 30.1133ZM135.06 30.1133C135.06 30.8223 135.145 31.4287 135.314 31.9326C135.49 32.4365 135.76 32.8232 136.123 33.0928C136.486 33.3564 136.955 33.4883 137.529 33.4883C138.104 33.4883 138.572 33.3564 138.936 33.0928C139.299 32.8232 139.565 32.4365 139.735 31.9326C139.905 31.4287 139.99 30.8223 139.99 30.1133C139.99 29.4043 139.905 28.8037 139.735 28.3115C139.565 27.8135 139.299 27.4355 138.936 27.1777C138.572 26.9141 138.101 26.7822 137.521 26.7822C136.665 26.7822 136.041 27.0693 135.648 27.6436C135.256 28.2178 135.06 29.041 135.06 30.1133ZM152.972 25.2705V35H151.346L151.064 33.6904H150.95C150.745 34.0244 150.484 34.3027 150.168 34.5254C149.852 34.7422 149.5 34.9033 149.113 35.0088C148.727 35.1201 148.319 35.1758 147.892 35.1758C147.159 35.1758 146.532 35.0527 146.011 34.8066C145.495 34.5547 145.1 34.168 144.824 33.6465C144.549 33.125 144.411 32.4512 144.411 31.625V25.2705H146.485V31.2383C146.485 31.9941 146.638 32.5596 146.942 32.9346C147.253 33.3096 147.733 33.4971 148.384 33.4971C149.011 33.4971 149.509 33.3682 149.878 33.1104C150.247 32.8525 150.508 32.4717 150.66 31.9678C150.818 31.4639 150.897 30.8457 150.897 30.1133V25.2705H152.972ZM162.473 32.2227C162.473 32.8613 162.317 33.4004 162.007 33.8398C161.696 34.2793 161.242 34.6133 160.645 34.8418C160.053 35.0645 159.326 35.1758 158.465 35.1758C157.785 35.1758 157.199 35.126 156.707 35.0264C156.221 34.9326 155.761 34.7861 155.327 34.5869V32.8027C155.79 33.0195 156.309 33.207 156.883 33.3652C157.463 33.5234 158.011 33.6025 158.526 33.6025C159.206 33.6025 159.695 33.4971 159.994 33.2861C160.293 33.0693 160.442 32.7822 160.442 32.4248C160.442 32.2139 160.381 32.0264 160.258 31.8623C160.141 31.6924 159.918 31.5195 159.59 31.3438C159.268 31.1621 158.793 30.9453 158.166 30.6934C157.551 30.4473 157.032 30.2012 156.61 29.9551C156.188 29.709 155.869 29.4131 155.652 29.0674C155.436 28.7158 155.327 28.2676 155.327 27.7227C155.327 26.8613 155.667 26.208 156.347 25.7627C157.032 25.3115 157.938 25.0859 159.062 25.0859C159.66 25.0859 160.223 25.1475 160.75 25.2705C161.283 25.3877 161.805 25.5605 162.314 25.7891L161.664 27.3447C161.225 27.1514 160.782 26.9932 160.337 26.8701C159.897 26.7412 159.449 26.6768 158.992 26.6768C158.459 26.6768 158.052 26.7588 157.771 26.9229C157.495 27.0869 157.357 27.3213 157.357 27.626C157.357 27.8545 157.425 28.0479 157.56 28.2061C157.694 28.3643 157.926 28.5225 158.254 28.6807C158.588 28.8389 159.051 29.0352 159.643 29.2695C160.223 29.4922 160.724 29.7266 161.146 29.9727C161.573 30.2129 161.901 30.5088 162.13 30.8604C162.358 31.2119 162.473 31.666 162.473 32.2227ZM168.581 25.0859C169.448 25.0859 170.192 25.2646 170.813 25.6221C171.435 25.9795 171.912 26.4863 172.246 27.1426C172.58 27.7988 172.747 28.584 172.747 29.498V30.6055H166.252C166.275 31.5488 166.527 32.2754 167.008 32.7852C167.494 33.2949 168.174 33.5498 169.047 33.5498C169.668 33.5498 170.225 33.4912 170.717 33.374C171.215 33.251 171.728 33.0723 172.255 32.8379V34.5166C171.769 34.7451 171.273 34.9121 170.77 35.0176C170.266 35.123 169.662 35.1758 168.959 35.1758C168.004 35.1758 167.163 34.9912 166.437 34.6221C165.716 34.2471 165.15 33.6904 164.74 32.9521C164.336 32.2139 164.134 31.2969 164.134 30.2012C164.134 29.1113 164.318 28.1855 164.688 27.4238C165.057 26.6621 165.575 26.082 166.243 25.6836C166.911 25.2852 167.69 25.0859 168.581 25.0859ZM168.581 26.6416C167.931 26.6416 167.403 26.8525 166.999 27.2744C166.601 27.6963 166.366 28.3145 166.296 29.1289H170.726C170.72 28.6426 170.638 28.2119 170.479 27.8369C170.327 27.4619 170.093 27.1689 169.776 26.958C169.466 26.7471 169.067 26.6416 168.581 26.6416Z" fill="white"/>
</svg>
