<svg width="30" height="30" viewBox="0 0 30 30" fill="none" xmlns="http://www.w3.org/2000/svg">
<path d="M24.9938 8.36C26.1143 7.69011 26.9527 6.63529 27.3525 5.3925C26.2996 6.01727 25.1476 6.45737 23.9463 6.69375C23.1361 5.83668 22.0665 5.2699 20.9023 5.08075C19.7382 4.8916 18.5441 5.0906 17.5043 5.64707C16.4644 6.20353 15.6364 7.08657 15.148 8.16007C14.6595 9.23357 14.5377 10.4379 14.8013 11.5875C12.6686 11.4804 10.5823 10.9261 8.67779 9.96048C6.77326 8.99486 5.09306 7.63954 3.74627 5.9825C3.06135 7.16388 2.85176 8.56166 3.16008 9.89197C3.46839 11.2223 4.27149 12.3854 5.40627 13.145C4.55466 13.1176 3.72193 12.887 2.97752 12.4725V12.54C2.97776 13.7787 3.40643 14.9792 4.19085 15.9379C4.97526 16.8966 6.06712 17.5545 7.28127 17.8C6.49135 18.0149 5.66278 18.0465 4.85877 17.8925C5.20218 18.9579 5.86965 19.8895 6.76803 20.5573C7.6664 21.2251 8.75085 21.5957 9.87002 21.6175C7.96981 23.1089 5.62311 23.9177 3.20752 23.9137C2.77877 23.9137 2.35127 23.8887 1.92627 23.84C4.37929 25.4162 7.23424 26.2529 10.15 26.25C12.1583 26.2638 14.1493 25.8784 16.0073 25.1162C17.8653 24.354 19.5534 23.2302 20.9734 21.81C22.3935 20.3899 23.5171 18.7017 24.2792 16.8436C25.0412 14.9855 25.4265 12.9945 25.4125 10.9862C25.4125 10.7537 25.4075 10.5225 25.3963 10.2925C26.4468 9.53327 27.3536 8.5927 28.0738 7.515C27.095 7.94881 26.0569 8.23363 24.9938 8.36Z" fill="#CCCCCC"/>
</svg>
